<svg xmlns="http://www.w3.org/2000/svg" viewBox="0 0 240 59.93"><defs><style>.cls-1{fill:#d72f33;}.cls-2{fill:#949697;}.cls-3{fill:#d62027;}.cls-4{fill:#919396;}</style></defs><g id="Layer_2" data-name="Layer 2"><g id="Layer_8" data-name="Layer 8"><path class="cls-1" d="M10,44.06v1.47H5.84V56.36H4.15V45.53H0V44.06Z"/><path class="cls-1" d="M14.21,50.93a.82.82,0,0,0,.7-.43,1.31,1.31,0,0,0,.1-.58,1.21,1.21,0,0,0-.55-1.12,2.84,2.84,0,0,0-1.56-.35,2,2,0,0,0-1.68.64,2.06,2.06,0,0,0-.35,1H9.46a2.61,2.61,0,0,1,1.07-2.31,4.36,4.36,0,0,1,2.4-.65,4.85,4.85,0,0,1,2.56.6,2,2,0,0,1,1,1.87v5.17a.6.6,0,0,0,.1.37.44.44,0,0,0,.4.15l.23,0,.27,0V56.4a2.87,2.87,0,0,1-.54.12,3.25,3.25,0,0,1-.5,0A1.24,1.24,0,0,1,15.3,56a2.19,2.19,0,0,1-.26-.83,3.84,3.84,0,0,1-1.32,1,4.06,4.06,0,0,1-1.9.45,2.82,2.82,0,0,1-2-.76A2.48,2.48,0,0,1,9,54a2.42,2.42,0,0,1,.78-1.93,3.72,3.72,0,0,1,2-.85ZM11,55a1.79,1.79,0,0,0,1.13.38A3.52,3.52,0,0,0,13.71,55,2.07,2.07,0,0,0,15,53V51.8a2.34,2.34,0,0,1-.71.29,5.44,5.44,0,0,1-.86.17l-.91.12a3.67,3.67,0,0,0-1.23.34,1.35,1.35,0,0,0-.7,1.26A1.23,1.23,0,0,0,11,55Z"/><path class="cls-1" d="M18.82,47.44h1.47v1.18a3.64,3.64,0,0,1,1-.94,3.15,3.15,0,0,1,1.79-.5,3.38,3.38,0,0,1,2.6,1.16,4.78,4.78,0,0,1,1.06,3.34c0,2-.51,3.35-1.54,4.18a3.47,3.47,0,0,1-2.26.8,3.07,3.07,0,0,1-1.71-.45,3.67,3.67,0,0,1-.9-.86v4.58h-1.5Zm5.66,7a4.18,4.18,0,0,0,.7-2.64A4.85,4.85,0,0,0,24.87,50a2.28,2.28,0,0,0-4.3.08,6.39,6.39,0,0,0-.31,2.13A4.67,4.67,0,0,0,20.57,54a2.29,2.29,0,0,0,3.91.5Z"/><path class="cls-1" d="M34,47.64a3.44,3.44,0,0,1,1.35,1.16,4,4,0,0,1,.6,1.58,10.16,10.16,0,0,1,.14,2H29.58a3.87,3.87,0,0,0,.64,2.19,2.13,2.13,0,0,0,1.85.83,2.39,2.39,0,0,0,1.87-.78,2.76,2.76,0,0,0,.55-1.06H36a3.11,3.11,0,0,1-.39,1.1,4,4,0,0,1-.73,1,3.6,3.6,0,0,1-1.69.9,5.07,5.07,0,0,1-1.22.13,3.74,3.74,0,0,1-2.82-1.21A4.78,4.78,0,0,1,28,52.05a5.17,5.17,0,0,1,1.17-3.51,3.81,3.81,0,0,1,3-1.35A4,4,0,0,1,34,47.64Zm.54,3.52a4,4,0,0,0-.42-1.57,2.18,2.18,0,0,0-2.05-1.08,2.26,2.26,0,0,0-1.73.75,2.85,2.85,0,0,0-.74,1.9Z"/><path class="cls-1" d="M38.05,44.06h1.5v12.3h-1.5Z"/><path class="cls-1" d="M41.81,44.06h1.53v1.71H41.81Zm0,3.38h1.53v8.92H41.81Z"/><path class="cls-1" d="M45.62,47.39h1.43v1.28a3.78,3.78,0,0,1,1.35-1.13A3.56,3.56,0,0,1,50,47.19a2.63,2.63,0,0,1,2.58,1.33,4.83,4.83,0,0,1,.37,2.09v5.75H51.39V50.71a3.13,3.13,0,0,0-.24-1.33,1.48,1.48,0,0,0-1.46-.83,2.71,2.71,0,0,0-.87.11,2.25,2.25,0,0,0-1.09.73,2.3,2.3,0,0,0-.49.92,5.91,5.91,0,0,0-.11,1.35v4.7H45.62Z"/><path class="cls-1" d="M60.69,47.64A3.44,3.44,0,0,1,62,48.8a4,4,0,0,1,.6,1.58,10.16,10.16,0,0,1,.14,2H56.26a3.79,3.79,0,0,0,.64,2.19,2.13,2.13,0,0,0,1.85.83,2.39,2.39,0,0,0,1.87-.78,2.76,2.76,0,0,0,.55-1.06h1.48a3.11,3.11,0,0,1-.39,1.1,4,4,0,0,1-.73,1,3.6,3.6,0,0,1-1.69.9,5.07,5.07,0,0,1-1.22.13,3.74,3.74,0,0,1-2.82-1.21,4.78,4.78,0,0,1-1.16-3.41,5.17,5.17,0,0,1,1.17-3.51,3.81,3.81,0,0,1,3-1.35A4,4,0,0,1,60.69,47.64Zm.54,3.52a4,4,0,0,0-.42-1.57,2.18,2.18,0,0,0-2.05-1.08,2.26,2.26,0,0,0-1.73.75,2.8,2.8,0,0,0-.74,1.9Z"/><path class="cls-1" d="M84.71,44.06h1.66V54.89h6.17v1.47H84.71Z"/><path class="cls-1" d="M100.53,48.29a4.53,4.53,0,0,1,1.19,3.39,5.83,5.83,0,0,1-1,3.58,3.77,3.77,0,0,1-3.25,1.41,3.65,3.65,0,0,1-2.91-1.24,5,5,0,0,1-1.08-3.36,5.36,5.36,0,0,1,1.14-3.6,3.79,3.79,0,0,1,3.05-1.34A4,4,0,0,1,100.53,48.29Zm-.93,6a5.75,5.75,0,0,0,.55-2.52,4.55,4.55,0,0,0-.4-2,2.22,2.22,0,0,0-2.17-1.24,2.12,2.12,0,0,0-2,1A4.86,4.86,0,0,0,95,52a4.19,4.19,0,0,0,.62,2.38,2.16,2.16,0,0,0,2,1A2.06,2.06,0,0,0,99.6,54.24Z"/><path class="cls-1" d="M110.06,48.29a4.49,4.49,0,0,1,1.19,3.39,5.83,5.83,0,0,1-1,3.58A3.77,3.77,0,0,1,107,56.67,3.65,3.65,0,0,1,104,55.43,5,5,0,0,1,103,52.07a5.36,5.36,0,0,1,1.14-3.6,3.79,3.79,0,0,1,3.05-1.34A4,4,0,0,1,110.06,48.29Zm-.93,6a5.75,5.75,0,0,0,.55-2.52,4.42,4.42,0,0,0-.4-2,2.22,2.22,0,0,0-2.17-1.24,2.12,2.12,0,0,0-2,1,4.86,4.86,0,0,0-.62,2.54,4.19,4.19,0,0,0,.62,2.38,2.17,2.17,0,0,0,2,1A2.06,2.06,0,0,0,109.13,54.24Z"/><path class="cls-1" d="M113.1,47.39h1.49v1.28a4.88,4.88,0,0,1,1-1,2.93,2.93,0,0,1,1.69-.51,2.69,2.69,0,0,1,1.73.53,2.82,2.82,0,0,1,.66.89,3.31,3.31,0,0,1,1.18-1.07,3.35,3.35,0,0,1,1.53-.35,2.5,2.5,0,0,1,2.46,1.31,4.34,4.34,0,0,1,.35,1.89v6h-1.57V50.13a1.44,1.44,0,0,0-.44-1.23,1.81,1.81,0,0,0-1.09-.33,2.13,2.13,0,0,0-1.53.59,2.59,2.59,0,0,0-.64,2v5.22h-1.53V50.51a3.07,3.07,0,0,0-.22-1.33,1.33,1.33,0,0,0-1.28-.63,2.19,2.19,0,0,0-1.55.66,3.22,3.22,0,0,0-.7,2.39v4.76H113.1Z"/><path class="cls-2" d="M141,45a4.38,4.38,0,0,1,1.41,2.79h-1.62a3.37,3.37,0,0,0-1.08-1.88,3.41,3.41,0,0,0-2.28-.69,3.62,3.62,0,0,0-2.88,1.27,5.92,5.92,0,0,0-1.09,3.92,5.74,5.74,0,0,0,1,3.5,3.42,3.42,0,0,0,2.95,1.35,3.1,3.1,0,0,0,2.76-1.42,5.41,5.41,0,0,0,.74-1.95h1.63a5.6,5.6,0,0,1-1.43,3.25,5,5,0,0,1-3.9,1.58,5.11,5.11,0,0,1-3.56-1.3q-1.89-1.71-1.89-5.3a6.81,6.81,0,0,1,1.42-4.46,5.18,5.18,0,0,1,4.25-1.89A5,5,0,0,1,141,45Z"/><path class="cls-2" d="M149.32,50.93a.82.82,0,0,0,.7-.43,1.48,1.48,0,0,0,.1-.58,1.21,1.21,0,0,0-.55-1.12,2.88,2.88,0,0,0-1.57-.35,2,2,0,0,0-1.67.64,2.15,2.15,0,0,0-.36,1h-1.4a2.61,2.61,0,0,1,1.07-2.31,4.36,4.36,0,0,1,2.4-.65,4.85,4.85,0,0,1,2.56.6,2,2,0,0,1,1,1.87v5.17a.6.6,0,0,0,.1.37.44.44,0,0,0,.4.15l.23,0,.27,0V56.4a3,3,0,0,1-.54.12,3.25,3.25,0,0,1-.5,0,1.23,1.23,0,0,1-1.13-.55,2.19,2.19,0,0,1-.26-.83,3.84,3.84,0,0,1-1.32,1,4.06,4.06,0,0,1-1.9.45,2.82,2.82,0,0,1-2-.76A2.48,2.48,0,0,1,144.1,54a2.42,2.42,0,0,1,.78-1.93,3.72,3.72,0,0,1,2-.85ZM146.15,55a1.77,1.77,0,0,0,1.13.38,3.52,3.52,0,0,0,1.54-.37,2.07,2.07,0,0,0,1.26-2V51.8a2.3,2.3,0,0,1-.72.29,5.12,5.12,0,0,1-.85.17l-.91.12a3.67,3.67,0,0,0-1.23.34,1.35,1.35,0,0,0-.7,1.26A1.23,1.23,0,0,0,146.15,55Z"/><path class="cls-2" d="M154.09,44.06h1.51v12.3h-1.51Z"/><path class="cls-2" d="M163.78,47.87a3.55,3.55,0,0,1,1.14,2.54h-1.46a2.7,2.7,0,0,0-.62-1.38,1.89,1.89,0,0,0-1.53-.55,2.12,2.12,0,0,0-2.06,1.41,5.65,5.65,0,0,0-.4,2.24,4.23,4.23,0,0,0,.57,2.27,2.21,2.21,0,0,0,3.28.35,3.18,3.18,0,0,0,.76-1.56h1.46a4,4,0,0,1-1.26,2.6,3.89,3.89,0,0,1-2.57.83,3.42,3.42,0,0,1-2.8-1.29,4.92,4.92,0,0,1-1-3.21,5.41,5.41,0,0,1,1.15-3.67,3.71,3.71,0,0,1,2.92-1.32A3.94,3.94,0,0,1,163.78,47.87Z"/><path class="cls-2" d="M167.93,47.39v6a2.65,2.65,0,0,0,.21,1.13,1.49,1.49,0,0,0,1.46.8,2.07,2.07,0,0,0,2.09-1.41,5.74,5.74,0,0,0,.3-2.07v-4.4h1.51v9h-1.43l0-1.33a3.19,3.19,0,0,1-.71.87,3.12,3.12,0,0,1-2.06.7,2.65,2.65,0,0,1-2.56-1.28,4,4,0,0,1-.37-1.83v-6.1Z"/><path class="cls-2" d="M176,44.06h1.51v12.3H176Z"/><path class="cls-2" d="M184.57,50.93a.82.82,0,0,0,.7-.43,1.48,1.48,0,0,0,.1-.58,1.23,1.23,0,0,0-.55-1.12,2.88,2.88,0,0,0-1.57-.35,2,2,0,0,0-1.67.64,2.15,2.15,0,0,0-.36,1h-1.4a2.59,2.59,0,0,1,1.07-2.31,4.36,4.36,0,0,1,2.4-.65,4.85,4.85,0,0,1,2.56.6,2,2,0,0,1,1,1.87v5.17a.6.6,0,0,0,.1.37.44.44,0,0,0,.4.15l.23,0,.27,0V56.4a3,3,0,0,1-.54.12,3.25,3.25,0,0,1-.5,0,1.23,1.23,0,0,1-1.13-.55,2.19,2.19,0,0,1-.26-.83,3.84,3.84,0,0,1-1.32,1,4.06,4.06,0,0,1-1.9.45,2.82,2.82,0,0,1-2-.76,2.48,2.48,0,0,1-.79-1.89,2.42,2.42,0,0,1,.78-1.93,3.72,3.72,0,0,1,2-.85ZM181.4,55a1.77,1.77,0,0,0,1.13.38,3.52,3.52,0,0,0,1.54-.37,2.06,2.06,0,0,0,1.25-2V51.8a2.23,2.23,0,0,1-.71.29,5.33,5.33,0,0,1-.85.17l-.91.12a3.67,3.67,0,0,0-1.23.34,1.35,1.35,0,0,0-.7,1.26A1.23,1.23,0,0,0,181.4,55Z"/><path class="cls-2" d="M189.6,44.89h1.52v2.5h1.44v1.23h-1.44v5.85a.64.64,0,0,0,.32.63,1.39,1.39,0,0,0,.59.09h.23l.3,0v1.2a4.86,4.86,0,0,1-.55.11,5.47,5.47,0,0,1-.6,0A1.62,1.62,0,0,1,190,56a2.34,2.34,0,0,1-.38-1.4V48.62h-1.21V47.39h1.21Z"/><path class="cls-2" d="M200.56,48.29a4.52,4.52,0,0,1,1.18,3.39,5.82,5.82,0,0,1-1,3.58,3.78,3.78,0,0,1-3.25,1.41,3.66,3.66,0,0,1-2.92-1.24,5,5,0,0,1-1.08-3.36,5.36,5.36,0,0,1,1.14-3.6,3.82,3.82,0,0,1,3.06-1.34A4,4,0,0,1,200.56,48.29Zm-.94,6a5.62,5.62,0,0,0,.55-2.52,4.42,4.42,0,0,0-.4-2,2.22,2.22,0,0,0-2.16-1.24,2.14,2.14,0,0,0-2,1A5,5,0,0,0,195,52a4.27,4.27,0,0,0,.62,2.38,2.17,2.17,0,0,0,2,1A2,2,0,0,0,199.62,54.24Z"/><path class="cls-2" d="M203.64,47.39h1.43v1.55a3.26,3.26,0,0,1,.86-1.1,2.22,2.22,0,0,1,1.58-.65h.14l.34,0v1.59l-.24,0h-.25a2.15,2.15,0,0,0-1.75.74,2.52,2.52,0,0,0-.61,1.68v5.16h-1.5Z"/><path class="cls-1" d="M69.31,53.44a2.53,2.53,0,0,1,.2-1,3.93,3.93,0,0,1,.52-.87,4.91,4.91,0,0,1,.77-.74,6,6,0,0,1,.92-.6,6.12,6.12,0,0,1-.58-.92,2.07,2.07,0,0,1-.24-1,1.93,1.93,0,0,1,.11-.62,1.63,1.63,0,0,1,.37-.54,1.92,1.92,0,0,1,.66-.39,2.78,2.78,0,0,1,1-.15,3.24,3.24,0,0,1,1,.14,2.07,2.07,0,0,1,.66.37,1.37,1.37,0,0,1,.35.52,1.63,1.63,0,0,1,.1.57,1.85,1.85,0,0,1-.45,1.11,4.06,4.06,0,0,1-1.45,1.09A13,13,0,0,0,74.39,52c.44.5.89,1,1.35,1.4a2.79,2.79,0,0,0,.32-.39,4.72,4.72,0,0,0,.3-.5l.28-.56c.08-.18.16-.36.22-.53l.93.48a5,5,0,0,1-.23.52c-.11.19-.22.4-.35.6s-.25.4-.38.58a4.25,4.25,0,0,1-.37.48l.52.42a3.38,3.38,0,0,0,.43.3l.38.24c.12.07.25.13.38.19l-.73.89a8.71,8.71,0,0,1-.8-.49,6.74,6.74,0,0,1-.89-.71,5,5,0,0,1-.56.45,4.55,4.55,0,0,1-.69.38,6.08,6.08,0,0,1-.85.26,4.65,4.65,0,0,1-1,.11,4.38,4.38,0,0,1-1.27-.18,3.42,3.42,0,0,1-1-.51,2.61,2.61,0,0,1-.72-.83A2.23,2.23,0,0,1,69.31,53.44Zm5.69.69c-.26-.24-.52-.51-.79-.79l-.75-.85c-.23-.28-.45-.55-.65-.81s-.38-.49-.53-.69A6.6,6.6,0,0,0,71,52.08a2,2,0,0,0-.49,1.33,1.22,1.22,0,0,0,.19.68,1.59,1.59,0,0,0,.48.52,2.16,2.16,0,0,0,.72.33,3.05,3.05,0,0,0,.87.11,2.56,2.56,0,0,0,.67-.08,3.75,3.75,0,0,0,.62-.2,3.34,3.34,0,0,0,.53-.3A1.9,1.9,0,0,0,75,54.13Zm-2.88-5.76a1.71,1.71,0,0,0,.16.72,3.9,3.9,0,0,0,.45.73,4.46,4.46,0,0,0,1-.75,1,1,0,0,0,.29-.6.94.94,0,0,0-.22-.66,1,1,0,0,0-.76-.24,1,1,0,0,0-.72.22A.75.75,0,0,0,72.12,48.37Z"/><path class="cls-3" d="M0,35.24,5.28.94h11L12.38,26.33H28.05l-1.29,8.91ZM44.77,15.82A4,4,0,0,0,41.08,18a12.24,12.24,0,0,0-1.3,6.21,6.05,6.05,0,0,0,.93,3.7,3.39,3.39,0,0,0,2.87,1.21,4,4,0,0,0,3.58-2.21A11.47,11.47,0,0,0,48.5,21a6.61,6.61,0,0,0-.93-3.87,3.19,3.19,0,0,0-2.8-1.29Zm-15.07,8q0-6.76,4.16-10.83T45,9Q51.28,9,55,12.25a11.39,11.39,0,0,1,3.66,8.92q0,7-4,11t-11.15,4q-6.33,0-10-3.31a11.5,11.5,0,0,1-3.69-9ZM58,35.24,63,.94H72.8L71,12.81a11.41,11.41,0,0,1,3.53-2.7,9.48,9.48,0,0,1,4.12-.9,8.41,8.41,0,0,1,6.17,2.2,8.18,8.18,0,0,1,2.22,6.09c0,.7,0,1.23,0,1.6a9.58,9.58,0,0,1-.11,1l-2,15.11H75l1.78-13.1c0-.13,0-.3.08-.51.1-.94.16-1.47.16-1.59a3.3,3.3,0,0,0-.75-2.35,2.9,2.9,0,0,0-2.23-.8,3.89,3.89,0,0,0-3,1.18,7,7,0,0,0-1.41,3.72L67.71,35.24ZM90.67,7.1l1.06-7h9.84l-1,7ZM86.73,35.24,90.44,9.92h9.85L96.58,35.24ZM116.26,24c-1,.32-2.36.67-4,1-2.65.58-4,1.57-4,3a1.86,1.86,0,0,0,.7,1.52,2.86,2.86,0,0,0,1.87.58,4.85,4.85,0,0,0,3.84-1.61,7.17,7.17,0,0,0,1.57-4.5Zm-.45,11.29-.33-2.37a16.38,16.38,0,0,1-4.29,2.39,13,13,0,0,1-4.56.81,9.13,9.13,0,0,1-6.07-1.93A6.45,6.45,0,0,1,98.29,29q0-4.35,2.85-6.51c1.89-1.44,5.14-2.38,9.72-2.85l1.41-.12c3.27-.31,4.9-1.09,4.9-2.36a1.8,1.8,0,0,0-.86-1.56A4.16,4.16,0,0,0,114,15a4.27,4.27,0,0,0-2.52.63,2.52,2.52,0,0,0-1,1.94h-9.51a8.58,8.58,0,0,1,4-6.41q3.42-2.12,9.76-2.11c3.92,0,6.91.67,9,2A6.67,6.67,0,0,1,126.76,17c0,.44,0,1-.1,1.64s-.15,1.37-.28,2.11L125,29.94c-.09.54-.16,1-.19,1.31a7.37,7.37,0,0,0-.07.81,4,4,0,0,0,.22,1.39,3.25,3.25,0,0,0,.65,1.12v.67Z"/><path class="cls-4" d="M151.58,22.18H162.2a16.55,16.55,0,0,1-5.67,10.34,17.24,17.24,0,0,1-11.33,3.73q-7.84,0-12.36-4.43t-4.5-12.13a21.43,21.43,0,0,1,1.29-7.38A19.51,19.51,0,0,1,133.29,6a16.8,16.8,0,0,1,6.13-4.48A19.76,19.76,0,0,1,147.31,0c4.76,0,8.45,1.2,11.11,3.59S162.58,9.46,162.9,14l-10.31,0a5.92,5.92,0,0,0-1.47-4.09,5.06,5.06,0,0,0-3.86-1.48,6.73,6.73,0,0,0-5.8,3.28,15.05,15.05,0,0,0-2.22,8.6,9,9,0,0,0,1.42,5.49,5,5,0,0,0,4.19,1.86A6.34,6.34,0,0,0,149,26.23a8.49,8.49,0,0,0,2.62-4.05Zm26.19-6.36a4.06,4.06,0,0,0-3.69,2.2,12.24,12.24,0,0,0-1.3,6.21,6.05,6.05,0,0,0,.93,3.7,3.4,3.4,0,0,0,2.87,1.21,4.07,4.07,0,0,0,3.59-2.21A11.58,11.58,0,0,0,181.5,21a6.61,6.61,0,0,0-.93-3.87,3.19,3.19,0,0,0-2.8-1.29Zm-15.07,8q0-6.76,4.16-10.83T178,9q6.28,0,9.94,3.28a11.39,11.39,0,0,1,3.66,8.92q0,7-4.05,11t-11.14,4q-6.34,0-10-3.31a11.5,11.5,0,0,1-3.69-9ZM191,35.24l3.61-25.32h9l-.54,3.66a11,11,0,0,1,3.27-3.34,7.52,7.52,0,0,1,4-1.08c.27,0,.63,0,1.1.07l.14,0-1.38,9.65-.8-.06c-.73-.08-1.22-.12-1.48-.12a5.09,5.09,0,0,0-4,1.45c-.85,1-1.47,2.75-1.84,5.38l-1.39,9.68Zm35.43-19a4.2,4.2,0,0,0-3.67,2,9.89,9.89,0,0,0-1.38,5.54,5,5,0,0,0,1,3.34,3.51,3.51,0,0,0,2.83,1.19,4,4,0,0,0,3.53-2.05,10.38,10.38,0,0,0,1.3-5.6,5.14,5.14,0,0,0-.93-3.31,3.28,3.28,0,0,0-2.7-1.16ZM208.6,45.07l5-35.15h8.89l-.4,3A10,10,0,0,1,225.55,10a9.7,9.7,0,0,1,4.36-1,9.25,9.25,0,0,1,7.42,3.12c1.79,2.08,2.67,5,2.67,8.64q0,6.82-3.35,11.12a10.43,10.43,0,0,1-8.6,4.3,10.07,10.07,0,0,1-4.67-1,7.53,7.53,0,0,1-3.14-2.93l-1.83,12.83Z"/></g></g></svg>